#!OML:ASF H:\Terrain\Patient Classification 1\Takeo\Monday\TakeoMonday.ASF
:FULLY-SPECIFIED
:DEGREES
99
root 9.48084 17.0886 -13.2816 -4.46706 2.54129 -2.14489
lowerback 5.60484 -1.59275 2.01716
upperback 2.59444 -1.9947 2.41205
thorax -0.453485 -0.994807 1.46398
lowerneck -13.7992 2.33531 -1.40799
upperneck -2.42758 3.3397 -1.69945
head 1.57299 1.62227 -0.11612
rclavicle -2.35063e-014 1.59028e-014
rhumerus -36.5379 -15.469 -78.3385
rradius 18.0943
rwrist -1.4813
rhand -19.3664 16.5041
rfingers 7.12502
rthumb 6.95143 -13.3618
lclavicle -2.35063e-014 1.59028e-014
lhumerus -31.7799 11.8894 86.3994
lradius 24.0676
lwrist 15.2485
lhand -19.1714 22.5458
lfingers 7.12502
lthumb 7.1397 52.4053
rfemur -13.9634 4.27334 27.3904
rtibia 33.4043
rfoot -16.2774 -7.63512
rtoes 0.440995
lfemur -6.45407 1.65802 -20.3491
ltibia 69.7001
lfoot 7.05561 16.0922
ltoes -8.16922
100
root 9.46191 17.1086 -13.1364 -4.35104 2.06377 -2.3252
lowerback 5.68069 -1.40856 2.09961
upperback 2.55343 -1.74153 2.38513
thorax -0.54377 -0.867938 1.37791
lowerneck -13.6545 2.28234 -1.5556
upperneck -2.43241 3.28172 -1.35127
head 1.53679 1.6051 0.013795
rclavicle -2.06239e-015 1.63003e-014
rhumerus -35.4523 -15.0726 -79.0616
rradius 18.3415
rwrist -1.47936
rhand -21.2611 15.8501
rfingers 7.12502
rthumb 5.12225 -14.068
lclavicle -2.06239e-015 1.63003e-014
lhumerus -32.1573 13.24 85.3508
lradius 22.6416
lwrist 14.0189
lhand -20.5714 21.4822
lfingers 7.12502
lthumb 5.78818 51.3831
rfemur -13.3047 4.54249 27.7872
rtibia 32.9103
rfoot -16.3544 -7.61384
rtoes 0.0633175
lfemur -8.16597 2.24934 -20.0031
ltibia 70.8802
lfoot 5.44167 16.6653
ltoes -6.53119
101
root 9.44773 17.1212 -12.995 -4.39969 1.4715 -2.65444
lowerback 5.87817 -1.24715 2.38147
upperback 2.63385 -1.50652 2.4117
thorax -0.578937 -0.748662 1.23693
lowerneck -13.679 2.28514 -1.39225
upperneck -2.36255 3.26508 -1.46477
head 1.56936 1.59179 -0.0496781
rclavicle 2.11209e-015 1.39149e-014
rhumerus -34.0912 -14.0518 -80.0706
rradius 18.5459
rwrist -1.93809
rhand -19.6393 16.0736
rfingers 7.12502
rthumb 6.688 -13.8007
lclavicle 2.11209e-015 1.39149e-014
lhumerus -32.5254 14.751 84.2875
lradius 21.4852
lwrist 12.862
lhand -21.0963 20.9221
lfingers 7.12502
lthumb 5.28138 50.8363
rfemur -12.4772 4.90656 28.3665
rtibia 32.4238
rfoot -16.3662 -7.62526
rtoes -0.263879
lfemur -9.72875 2.82054 -19.5252
ltibia 71.8496
lfoot 3.93178 16.9631
ltoes -6.20038
102
root 9.4465 17.1343 -12.8475 -4.59255 0.93035 -2.59557
lowerback 6.12086 -1.09757 2.44573
upperback 2.74146 -1.29885 2.3018
thorax -0.607781 -0.643742 1.07861
lowerneck -13.5354 2.2401 -1.3272
upperneck -2.37265 3.19448 -1.53117
head 1.54321 1.55526 -0.0875028
rclavicle 8.32411e-015 -3.18055e-015
rhumerus -33.0347 -12.3626 -81.2451
rradius 19.1582
rwrist -2.98744
rhand -19.4179 15.8064
rfingers 7.12502
rthumb 6.90175 -14.0611
lclavicle 8.32411e-015 -3.18055e-015
lhumerus -33.009 15.9898 83.3654
lradius 20.4651
lwrist 12.6624
lhand -20.8306 21.1561
lfingers 7.12502
lthumb 5.53792 51.0638
rfemur -11.3877 5.19766 28.4461
rtibia 31.8951
rfoot -16.3934 -7.38825
rtoes -0.00602228
lfemur -10.9554 3.12289 -19.5838
ltibia 72.4387
lfoot 2.39932 17.0992
ltoes -5.91867
103
root 9.44456 17.1491 -12.6952 -4.94255 0.406566 -2.12958
lowerback 6.45978 -0.931881 2.03413
upperback 2.9 -1.0958 2.14714
thorax -0.628783 -0.544368 1.14113
lowerneck -13.527 2.26055 -1.64067
upperneck -2.24324 3.26429 -1.24433
head 1.57389 1.5984 0.0611358
rclavicle 8.19987e-015 -1.11319e-014
rhumerus -32.0136 -10.5649 -82.1907
rradius 19.8962
rwrist -3.95431
rhand -19.6203 15.5523
rfingers 7.12502
rthumb 6.70641 -14.3215
lclavicle 8.19987e-015 -1.11319e-014
lhumerus -33.5434 17.0839 82.666
lradius 19.6142
lwrist 13.0389
lhand -21.6407 21.0609
lfingers 7.12502
lthumb 4.75573 50.9875
rfemur -10.1828 5.53725 28.0944
rtibia 31.5367
rfoot -16.7531 -7.21572
rtoes 0.309023
lfemur -11.8685 3.34976 -20.1001
ltibia 72.7075
lfoot 1.43285 17.0806
ltoes -5.75201
104
root 9.43975 17.1776 -12.5416 -5.1367 -0.0248211 -2.1206
lowerback 6.65595 -0.79823 2.05354
upperback 3.00907 -0.914004 2.08497
thorax -0.627444 -0.452844 1.05583
lowerneck -13.6244 2.35941 -1.85262
upperneck -1.90666 3.42823 -0.964201
head 1.69366 1.68503 0.199733
rclavicle -1.06101e-014 -6.36111e-015
rhumerus -30.8145 -8.92985 -83.1073
rradius 20.3221
rwrist -4.80113
rhand -19.8234 15.0828
rfingers 7.12502
rthumb 6.51034 -14.7972
lclavicle -1.06101e-014 -6.36111e-015
lhumerus -34.0841 18.2694 81.6516
lradius 18.8213
lwrist 12.1375
lhand -22.6486 20.6
lfingers 7.12502
lthumb 3.78242 50.5462
rfemur -9.19986 5.77049 28.2293
rtibia 31.2756
rfoot -17.43 -7.09642
rtoes 1.30788
lfemur -12.9498 3.4375 -20.0542
ltibia 72.7551
lfoot 0.750091 16.7418
ltoes -5.06734
